<svg width="223" height="42" viewBox="0 0 223 42" fill="none" xmlns="http://www.w3.org/2000/svg">
<g filter="url(#filter0_b_2_28)">
<path d="M8.66667 42C3.8802 42 -1.69609e-07 38.1198 -3.78832e-07 33.3333L-9.3251e-07 20.6667C-1.14173e-06 15.8802 3.8802 12 8.66666 12L27.3333 12C32.1198 12 36 15.8802 36 20.6667L36 33.3333C36 38.1198 32.1198 42 27.3333 42L8.66667 42Z" fill="url(#paint0_linear_2_28)"/>
</g>
<path d="M15.6667 37C10.8802 37 7 33.1544 7 28.4107L7 8.58929C7 3.84555 10.8802 -1.69609e-07 15.6667 -3.78832e-07L34.3333 -1.19478e-06C39.1198 -1.404e-06 43 3.84555 43 8.58929L43 28.4107C43 33.1544 39.1198 37 34.3333 37L15.6667 37Z" fill="url(#paint1_linear_2_28)"/>
<path d="M75.984 22H80.328L74.232 5.152H69.48L63.384 22H67.68L68.688 19.024H74.976L75.984 22ZM73.92 15.856H69.768L71.832 9.688L73.92 15.856ZM80.1673 15.28C80.1673 19.504 82.7833 22.192 86.0713 22.192C88.0393 22.192 89.4553 21.304 90.1993 20.08V22H94.3033V4.24H90.1993V10.456C89.3833 9.232 87.8473 8.416 86.0713 8.416C82.7833 8.416 80.1673 11.056 80.1673 15.28ZM90.1993 15.304C90.1993 17.44 88.8313 18.616 87.2713 18.616C85.7353 18.616 84.3433 17.416 84.3433 15.28C84.3433 13.144 85.7353 11.992 87.2713 11.992C88.8313 11.992 90.1993 13.168 90.1993 15.304ZM114.528 22H118.608V14.176C118.608 10.576 116.472 8.464 113.16 8.464C111.216 8.464 109.536 9.544 108.648 10.96C107.736 9.352 106.104 8.464 104.088 8.464C102.336 8.464 100.968 9.208 100.176 10.288V8.608H96.0724V22H100.176V14.728C100.176 12.976 101.184 12.016 102.744 12.016C104.304 12.016 105.312 12.976 105.312 14.728V22H109.392V14.728C109.392 12.976 110.4 12.016 111.96 12.016C113.52 12.016 114.528 12.976 114.528 14.728V22ZM120.279 22H124.383V8.608H120.279V22ZM122.343 7.216C123.783 7.216 124.767 6.232 124.767 5.008C124.767 3.76 123.783 2.776 122.343 2.776C120.879 2.776 119.895 3.76 119.895 5.008C119.895 6.232 120.879 7.216 122.343 7.216ZM135.397 22H139.477V14.176C139.477 10.576 137.413 8.464 134.317 8.464C132.517 8.464 131.077 9.256 130.261 10.384V8.608H126.157V22H130.261V14.728C130.261 12.904 131.269 11.896 132.829 11.896C134.389 11.896 135.397 12.904 135.397 14.728V22ZM154.303 16.864C154.303 18.064 153.511 18.688 152.143 18.688H149.119V14.968H152.095C153.463 14.968 154.303 15.664 154.303 16.864ZM153.895 10.216C153.895 11.368 153.151 11.968 151.807 11.968H149.119V8.44H151.807C153.151 8.44 153.895 9.064 153.895 10.216ZM158.455 17.416C158.455 15.496 157.183 13.768 155.215 13.36C156.847 12.88 158.071 11.56 158.071 9.52C158.071 6.856 156.031 5.152 152.599 5.152H145.015V22H152.863C156.415 22 158.455 20.2 158.455 17.416ZM172.739 15.304C172.739 11.056 169.715 8.416 165.779 8.416C161.867 8.416 158.819 11.056 158.819 15.304C158.819 19.552 161.795 22.192 165.731 22.192C169.667 22.192 172.739 19.552 172.739 15.304ZM162.995 15.304C162.995 13.024 164.291 11.968 165.779 11.968C167.219 11.968 168.563 13.024 168.563 15.304C168.563 17.56 167.195 18.64 165.731 18.64C164.243 18.64 162.995 17.56 162.995 15.304ZM172.9 15.28C172.9 19.504 175.516 22.192 178.78 22.192C180.772 22.192 182.188 21.28 182.932 20.104V22H187.036V8.608H182.932V10.504C182.212 9.328 180.796 8.416 178.804 8.416C175.516 8.416 172.9 11.056 172.9 15.28ZM182.932 15.304C182.932 17.44 181.564 18.616 180.004 18.616C178.468 18.616 177.076 17.416 177.076 15.28C177.076 13.144 178.468 11.992 180.004 11.992C181.564 11.992 182.932 13.168 182.932 15.304ZM192.909 15.784C192.909 13.48 194.037 12.808 195.981 12.808H197.109V8.464C195.309 8.464 193.845 9.424 192.909 10.84V8.608H188.805V22H192.909V15.784ZM197.055 15.28C197.055 19.504 199.671 22.192 202.959 22.192C204.927 22.192 206.343 21.304 207.087 20.08V22H211.191V4.24H207.087V10.456C206.271 9.232 204.735 8.416 202.959 8.416C199.671 8.416 197.055 11.056 197.055 15.28ZM207.087 15.304C207.087 17.44 205.719 18.616 204.159 18.616C202.623 18.616 201.231 17.416 201.231 15.28C201.231 13.144 202.623 11.992 204.159 11.992C205.719 11.992 207.087 13.168 207.087 15.304Z" fill="#2D2D2C"/>
<path d="M63.17 38H64.58L65.1 35.03H67.33L67.52 33.95H65.3L65.62 32.12H68.52L68.72 31.02H64.41L63.17 38ZM74.3727 34.71C74.3727 33.31 73.3827 32.37 71.9427 32.37C70.0027 32.37 68.5527 33.86 68.5527 35.76C68.5527 37.15 69.5227 38.09 70.9527 38.09C72.8827 38.09 74.3727 36.63 74.3727 34.71ZM70.0027 35.66C70.0027 34.58 70.6927 33.57 71.7427 33.57C72.3827 33.57 72.9227 33.98 72.9227 34.82C72.9227 35.88 72.1827 36.89 71.1427 36.89C70.4927 36.89 70.0027 36.48 70.0027 35.66ZM76.2597 38L76.7797 35.04C77.0097 34.13 77.5397 33.85 78.3197 33.85H78.6897L78.9497 32.38C78.1797 32.38 77.5297 32.8 77.0697 33.44L77.2397 32.46H75.8297L74.8497 38H76.2597ZM85.9584 38H87.3684L88.5984 31.02H87.1984L86.6884 33.91H83.6984L84.2084 31.02H82.8084L81.5684 38H82.9784L83.5084 35.01H86.4884L85.9584 38ZM88.8764 35.21C88.5664 36.94 89.4864 38.09 90.8864 38.09C91.7664 38.09 92.4764 37.67 92.8864 37.19L92.7364 38H94.1464L95.1264 32.46H93.7164L93.5764 33.25C93.3364 32.79 92.7964 32.37 91.9064 32.37C90.4964 32.37 89.1764 33.48 88.8764 35.21ZM93.2264 35.23C93.0464 36.28 92.2364 36.86 91.4764 36.86C90.7264 36.86 90.1264 36.26 90.3064 35.21C90.4964 34.16 91.3064 33.6 92.0564 33.6C92.8164 33.6 93.4164 34.18 93.2264 35.23ZM95.5138 38H96.9238L97.9038 32.46H96.4938L95.5138 38ZM97.3238 31.8C97.8138 31.8 98.2438 31.44 98.3238 30.98C98.4038 30.52 98.1038 30.16 97.6138 30.16C97.1138 30.16 96.6838 30.52 96.6038 30.98C96.5238 31.44 96.8238 31.8 97.3238 31.8ZM104.653 31.02H102.213L100.973 38H103.413C105.653 38 107.343 36.63 107.713 34.52C108.093 32.4 106.883 31.02 104.653 31.02ZM102.593 36.86L103.413 32.19H104.393C105.873 32.19 106.533 33.07 106.283 34.52C106.023 35.97 105.053 36.86 103.573 36.86H102.593ZM108.281 35.21C107.971 36.94 108.891 38.09 110.291 38.09C111.171 38.09 111.881 37.67 112.291 37.19L112.141 38H113.551L114.531 32.46H113.121L112.981 33.25C112.741 32.79 112.201 32.37 111.311 32.37C109.901 32.37 108.581 33.48 108.281 35.21ZM112.631 35.23C112.451 36.28 111.641 36.86 110.881 36.86C110.131 36.86 109.531 36.26 109.711 35.21C109.901 34.16 110.711 33.6 111.461 33.6C112.221 33.6 112.821 34.18 112.631 35.23ZM118.808 38H120.198L120.778 34.75C121.048 33.22 120.278 32.38 118.978 32.38C118.278 32.38 117.628 32.68 117.188 33.14L117.308 32.46H115.898L114.918 38H116.328L116.878 34.87C117.058 34.02 117.618 33.57 118.358 33.57C119.098 33.57 119.498 34.05 119.348 34.94L118.808 38ZM121.669 35.21C121.359 36.94 122.279 38.09 123.699 38.09C124.559 38.09 125.269 37.66 125.679 37.18L125.529 38.04C125.339 39.07 124.679 39.51 123.899 39.51C123.209 39.51 122.739 39.18 122.689 38.68H121.299C121.219 39.95 122.159 40.73 123.719 40.73C125.539 40.73 126.669 39.54 126.939 38.04L127.919 32.46H126.509L126.369 33.25C126.139 32.77 125.569 32.37 124.699 32.37C123.289 32.37 121.969 33.48 121.669 35.21ZM126.019 35.23C125.839 36.28 125.029 36.86 124.269 36.86C123.519 36.86 122.919 36.26 123.099 35.21C123.289 34.16 124.099 33.6 124.849 33.6C125.609 33.6 126.209 34.18 126.019 35.23ZM134.663 31.02H132.223L130.983 38H133.423C135.663 38 137.353 36.63 137.723 34.52C138.103 32.4 136.893 31.02 134.663 31.02ZM132.603 36.86L133.423 32.19H134.403C135.883 32.19 136.543 33.07 136.293 34.52C136.033 35.97 135.063 36.86 133.583 36.86H132.603ZM141.33 33.52C142.05 33.52 142.55 33.98 142.43 34.77H139.79C140.02 33.98 140.64 33.52 141.33 33.52ZM143.47 36.26H141.96C141.73 36.63 141.34 36.93 140.74 36.93C140.03 36.93 139.55 36.46 139.64 35.62H143.69C143.75 35.44 143.79 35.26 143.82 35.1C144.11 33.46 143.17 32.37 141.57 32.37C139.93 32.37 138.6 33.48 138.29 35.23C137.97 36.97 138.96 38.09 140.57 38.09C141.93 38.09 143 37.28 143.47 36.26ZM144.712 32.46L145.772 38H147.492L150.522 32.46H149.012L146.862 36.71L146.212 32.46H144.712ZM153.489 33.52C154.209 33.52 154.709 33.98 154.589 34.77H151.949C152.179 33.98 152.799 33.52 153.489 33.52ZM155.629 36.26H154.119C153.889 36.63 153.499 36.93 152.899 36.93C152.189 36.93 151.709 36.46 151.799 35.62H155.849C155.909 35.44 155.949 35.26 155.979 35.1C156.269 33.46 155.329 32.37 153.729 32.37C152.089 32.37 150.759 33.48 150.449 35.23C150.129 36.97 151.119 38.09 152.729 38.09C154.089 38.09 155.159 37.28 155.629 36.26ZM156.481 38H157.891L159.201 30.6H157.791L156.481 38ZM165.164 34.71C165.164 33.31 164.174 32.37 162.734 32.37C160.794 32.37 159.344 33.86 159.344 35.76C159.344 37.15 160.314 38.09 161.744 38.09C163.674 38.09 165.164 36.63 165.164 34.71ZM160.794 35.66C160.794 34.58 161.484 33.57 162.534 33.57C163.174 33.57 163.714 33.98 163.714 34.82C163.714 35.88 162.974 36.89 161.934 36.89C161.284 36.89 160.794 36.48 160.794 35.66ZM167.891 33.26L168.031 32.46H166.621L165.181 40.64H166.591L167.191 37.21C167.451 37.66 168.001 38.09 168.871 38.09C170.281 38.09 171.591 36.94 171.901 35.21C172.201 33.48 171.291 32.37 169.871 32.37C169.011 32.37 168.301 32.79 167.891 33.26ZM170.471 35.21C170.281 36.26 169.471 36.86 168.711 36.86C167.951 36.86 167.351 36.28 167.541 35.23C167.721 34.18 168.541 33.6 169.291 33.6C170.051 33.6 170.651 34.16 170.471 35.21ZM175.598 33.52C176.318 33.52 176.818 33.98 176.698 34.77H174.058C174.288 33.98 174.908 33.52 175.598 33.52ZM177.738 36.26H176.228C175.998 36.63 175.608 36.93 175.008 36.93C174.298 36.93 173.818 36.46 173.908 35.62H177.958C178.018 35.44 178.058 35.26 178.088 35.1C178.378 33.46 177.438 32.37 175.838 32.37C174.198 32.37 172.868 33.48 172.558 35.23C172.238 36.97 173.228 38.09 174.838 38.09C176.198 38.09 177.268 37.28 177.738 36.26ZM180 38L180.52 35.04C180.75 34.13 181.28 33.85 182.06 33.85H182.43L182.69 32.38C181.92 32.38 181.27 32.8 180.81 33.44L180.98 32.46H179.57L178.59 38H180Z" fill="#2D2D2C" fill-opacity="0.4"/>
<defs>
<filter id="filter0_b_2_28" x="-64" y="-52" width="164" height="158" filterUnits="userSpaceOnUse" color-interpolation-filters="sRGB">
<feFlood flood-opacity="0" result="BackgroundImageFix"/>
<feGaussianBlur in="BackgroundImage" stdDeviation="32"/>
<feComposite in2="SourceAlpha" operator="in" result="effect1_backgroundBlur_2_28"/>
<feBlend mode="normal" in="SourceGraphic" in2="effect1_backgroundBlur_2_28" result="shape"/>
</filter>
<linearGradient id="paint0_linear_2_28" x1="-6.55671e-07" y1="27" x2="36" y2="27" gradientUnits="userSpaceOnUse">
<stop stop-color="#323B6A" stop-opacity="0.68"/>
<stop offset="1" stop-color="#414D8C" stop-opacity="0.05"/>
</linearGradient>
<linearGradient id="paint1_linear_2_28" x1="7" y1="18.5" x2="43" y2="18.5" gradientUnits="userSpaceOnUse">
<stop stop-color="#323B6A" stop-opacity="0.68"/>
<stop offset="1" stop-color="#414D8C" stop-opacity="0.05"/>
</linearGradient>
</defs>
</svg>
